<svg width="102" height="29" viewBox="0 0 102 29" fill="none" xmlns="http://www.w3.org/2000/svg">
<path d="M26.6528 11.609C26.6528 11.609 29.382 9.39089 32.7083 9.39089V13.6628C26.2264 13.5807 26.6528 18.5919 26.6528 18.5919V28.4502H22.6443V9.7195H26.6528V11.609ZM50.1923 9.7195H54.1156V20.1528C54.1156 24.9177 50.1923 28.9431 45.2456 28.9431C40.2989 28.9431 36.3756 24.9177 36.3756 20.1528V9.7195H40.2989V20.1528C40.2989 22.7817 42.5164 24.9998 45.2456 24.9998C47.9748 24.9998 50.1923 22.7817 50.1923 20.1528V9.7195ZM58.0388 28.4502V9.7195H62.0473V28.5324H58.0388V28.4502ZM10.7892 13.1699C7.46301 13.1699 4.7338 15.7988 4.7338 19.0027C4.7338 22.2067 7.46301 24.8355 10.7892 24.8355C12.8362 24.8355 14.6272 23.8497 15.8212 22.2888L18.9769 24.5891C17.0153 27.1358 14.0302 28.6967 10.7892 28.6967C5.24552 28.7788 0.810547 24.4248 0.810547 19.0027C0.810547 13.5807 5.33081 9.30874 10.7892 9.30874C14.0302 9.30874 17.1858 10.8696 18.9769 13.4164L15.8212 15.7166C14.7125 14.1557 12.8362 13.1699 10.7892 13.1699ZM86.3544 17.2775H97.9536C96.8448 12.677 92.154 12.8413 92.154 12.8413C92.154 12.8413 87.8896 12.5127 86.3544 17.2775ZM92.0687 9.39089C92.0687 9.39089 102.303 9.06228 101.792 20.4815H86.2691C86.6103 21.878 87.2926 23.0282 88.4013 24.014C89.5101 24.9998 90.96 25.4927 92.5804 25.4927C92.5804 25.4927 95.9067 25.657 97.8683 22.946L100.768 24.9998C100.001 26.0678 98.7212 26.9715 97.0154 27.793C95.5655 28.4502 93.8598 28.861 92.2393 28.861C86.6956 28.861 82.5165 24.5069 82.5165 19.167C82.4312 13.745 86.6956 9.39089 92.0687 9.39089ZM77.9962 19.0027C77.9962 19.0027 80.1284 20.235 80.0431 23.1103C80.0431 23.1103 80.2137 27.1358 75.6081 28.4502C75.6081 28.4502 70.1497 30.1754 65.7147 25.9035L67.7616 23.1925C72.2819 26.8072 75.267 24.7534 75.267 24.7534C75.7787 24.3426 76.0346 23.8497 76.0346 23.2746C76.0346 21.7959 74.0729 21.303 74.0729 21.303C73.4759 21.1387 72.8789 20.8922 72.1113 20.7279C72.1113 20.7279 69.7233 20.1528 67.9322 19.0849C67.3352 18.6741 66.8235 18.1812 66.397 17.524C65.9706 16.8668 65.8 16.0452 65.8 15.0594C65.8 15.0594 65.6294 11.3625 69.2115 9.80165C69.2115 9.80165 74.2435 7.74784 78.9344 11.3625L76.8875 14.2379C74.7553 12.677 72.6231 12.7591 72.6231 12.7591C71.6849 12.7591 71.0879 12.9234 70.5761 13.3342C70.1497 13.745 69.8938 14.0736 69.8938 14.5665C69.8938 14.5665 69.7233 15.7166 71.8555 16.5381C72.4525 16.7024 73.0495 16.9489 73.8171 17.1132C74.4994 17.2775 75.267 17.6061 75.9493 17.7704C76.7169 18.2633 77.3992 18.6741 77.9962 19.0027ZM60.0004 0.929199C61.5356 0.929199 62.7296 2.07933 62.7296 3.64023C62.7296 5.20112 61.5356 6.35125 60.0004 6.35125C58.4652 6.35125 57.2712 5.20112 57.2712 3.64023C57.2712 2.07933 58.4652 0.929199 60.0004 0.929199Z" fill="#FF4D37"/>
</svg>
