<svg width="81" height="36" viewBox="0 0 81 36" fill="none" xmlns="http://www.w3.org/2000/svg">
<path fill-rule="evenodd" clip-rule="evenodd" d="M71.6142 32.8084C70.7193 33.8299 68.9029 33.6767 68.6045 32.1829C68.462 31.4421 68.6693 30.5484 68.9937 29.9227C69.7202 28.5565 71.0305 27.433 72.5225 27.0627C72.5225 27.9054 72.5225 29.0163 72.4966 29.8717C72.4703 30.8166 72.263 32.055 71.6142 32.8084ZM57.1758 12.622C58.0062 12.673 58.6678 13.5667 58.4472 15.0862C58.1748 16.8866 56.6569 18.8144 54.9317 19.2485C54.659 18.6102 54.5295 17.3078 54.685 16.031C54.9705 13.6943 56.1899 12.5708 57.1758 12.622ZM24.8353 21.3297C23.551 19.6443 23.6028 17.6015 24.0052 15.6608C25.2633 18.4441 28.6234 18.9295 30.6989 18.5208C30.4266 20.6659 29.2846 22.5428 27.3131 22.5428C26.2104 22.5555 25.4059 22.0831 24.8353 21.3297ZM29.3757 13.4645C30.0087 14.1005 30.4357 15.0277 30.6312 16.0568C30.6324 16.0567 30.6341 16.0693 30.6341 16.0693C30.6333 16.0651 30.6321 16.061 30.6312 16.0568C29.1793 16.2605 27.7793 15.9923 26.7553 15.2137C26.016 14.6392 25.8212 13.7327 26.1326 13.1837C26.5864 12.3921 27.9488 12.0473 29.3757 13.4645ZM9.60564 2.9947C10.5005 1.96056 12.3168 2.12638 12.6022 3.62038C12.7448 4.34808 12.5502 5.24181 12.2261 5.86748C11.4993 7.23368 10.1891 8.35723 8.69722 8.74028C8.69722 7.88495 8.68422 6.78681 8.72342 5.9313C8.74924 4.98657 8.95694 3.73521 9.60564 2.9947ZM75.8305 25.1347C75.8433 20.6914 75.8305 16.2481 75.8305 11.8047C75.8305 10.7067 72.6262 10.6427 72.5225 11.7537C72.5225 12.2005 72.5225 12.6602 72.5094 13.107C72.4577 15.5458 71.2772 20.104 69.3183 21.7639C68.7864 22.2109 68.3062 22.2363 67.9692 21.9936C67.6706 21.7766 67.5927 21.2277 67.5927 20.7553V20.1424C67.5927 17.3973 67.6058 14.5627 67.5927 11.8174C67.5927 10.7193 64.3885 10.6427 64.2847 11.7537C64.2847 14.3072 64.2847 16.7844 64.2979 19.3125C62.1832 22.6322 57.2926 24.1899 55.2689 20.2572C56.5273 20.7297 57.8633 20.4998 58.7715 20.0274C60.3413 19.2102 61.5346 17.8569 61.7681 15.7119C61.9886 9.42977 53.5567 8.57445 51.6754 14.9713C51.3642 16.031 51.1956 17.1674 51.2346 18.2782C51.2732 19.3379 51.4939 20.321 51.8701 21.1894C51.1823 21.8532 50.3912 22.3129 49.6 22.2875C48.5619 22.2491 48.666 20.9851 48.666 20.2572V15.4691C48.666 14.8947 48.666 14.3201 48.6139 13.7584C48.4455 12.0857 47.148 10.7578 45.332 10.6427C42.7502 10.6045 40.9342 12.9666 40.0391 15.5586C40.0263 14.1158 40.0391 13.2602 40.0391 11.8047C40.0263 10.7193 37.0556 10.6427 36.7182 11.7919C36.2901 13.2475 34.8889 14.3839 33.5787 15.0605C33.1767 14.103 32.6709 13.2221 31.9703 12.4688C29.0902 9.39156 24.9262 9.95343 22.4871 12.4942C20.5542 14.5117 19.9708 18.1505 21.0084 20.704C20.2431 21.598 19.1924 22.3257 18.2583 22.2875C17.7911 22.2619 17.5317 21.9936 17.4149 21.5724C17.2981 21.1637 17.3242 20.6787 17.3242 20.2572C17.3242 18.6612 17.3111 17.0652 17.3242 15.4691C17.3242 14.8947 17.3242 14.3201 17.2725 13.7584C17.1036 12.0857 16.1047 10.7449 14.2109 10.6301C10.9547 10.4895 9.64445 13.5923 8.68422 16.1459V10.6939C9.37193 10.5789 10.0336 10.4129 10.695 10.2215C17.869 8.1914 16.4808 0.773004 11.1364 0.645384C7.52987 0.568773 5.38927 2.90529 5.41547 6.45477V8.75308C4.11807 8.56165 3.14502 6.90183 2.60035 5.82928C2.52232 5.66326 2.44449 5.49724 2.36684 5.33122C2.30201 5.1652 2.12033 5.07598 1.95145 5.12699C1.80898 5.1652 1.66631 5.2164 1.52345 5.26741C1.0048 5.49724 0.576411 5.89309 0.369106 6.41656C-0.0070726 7.34869 0.369106 8.34462 1.03042 9.04672C2.12033 10.1705 3.85875 10.5789 5.38927 10.6555C5.37626 15.0862 5.38927 19.504 5.38927 23.9345C5.44109 24.5602 6.3105 24.7262 6.81634 24.7388C7.34838 24.7517 8.50272 24.5856 8.51593 23.8707L8.55475 23.3216C8.77526 21.3554 10.695 13.4901 13.1209 13.4773C13.7178 13.4773 14.0163 13.8604 14.0163 14.435V21.4448C14.0163 23.6153 15.2615 25.0708 17.5188 25.0708C19.2701 25.0837 20.8525 23.8323 21.7996 22.2747C21.9292 22.4407 22.0331 22.6193 22.1758 22.7726C23.4081 24.1899 25.2244 25.0965 27.3001 25.1092C31.8272 25.0453 34.1493 21.2149 33.981 17.4483C35.0317 16.8738 35.9788 16.133 36.705 15.2137V23.9345C36.757 24.5602 37.6652 24.7262 38.1713 24.7388C38.7029 24.7517 39.8577 24.5856 39.8577 23.8707L39.9095 23.3216L40.0649 21.8661C40.2987 19.8359 41.8424 13.4901 44.4758 13.4773C45.0593 13.4773 45.3581 13.8604 45.3581 14.435V21.4448C45.3581 23.6153 46.6034 25.0708 48.8733 25.0708C50.4432 25.0837 51.8701 24.075 52.8301 22.7471C54.1013 24.292 56.0475 25.1985 58.3822 25.1985C61.1197 25.1985 63.1042 24.0111 64.4275 22.0958C64.7259 23.7431 65.621 25.0453 67.8135 25.0708C70.0834 25.0837 71.809 21.9683 72.5225 20.0912V25.1092C71.8476 25.2241 71.1863 25.3901 70.5249 25.5815C63.3509 27.599 64.7259 35.03 70.0706 35.145C73.6899 35.2344 75.8173 32.8977 75.8045 29.3483C75.8045 28.7482 75.7915 27.6246 75.8045 27.0371C77.0888 27.2287 78.0746 28.9014 78.6066 29.974C78.6973 30.1399 78.7753 30.3057 78.8402 30.4718C78.9179 30.6378 79.0864 30.7144 79.2682 30.676C79.4108 30.6378 79.5535 30.5868 79.6832 30.5228C80.2152 30.2931 80.6434 29.9101 80.8509 29.3738C81.2271 28.4418 80.8509 27.4586 80.1762 26.7562C79.0997 25.62 77.348 25.2241 75.8305 25.1347Z" fill="#F5772A"/>
</svg>
