<svg xmlns="http://www.w3.org/2000/svg" viewBox="0 0 1690 1640" width="1690" height="1640"
    preserveAspectRatio="xMidYMid meet" style="width: 100%; height: 100%; transform: translate3d(0px, 0px, 0px);">
    <defs>
        <clipPath id="__lottie_element_2">
            <rect width="1690" height="1640" x="0" y="0"></rect>
        </clipPath>
    </defs>
    <g clip-path="url(#__lottie_element_2)">
        <g transform="matrix(1,0,0,1,1402.5,1320)" opacity="1" style="display: block;">
            <g opacity="1" transform="matrix(1,0,0,1,0,0)">
                <path fill="rgb(34,150,81)" fill-opacity="1"
                    d=" M203.5,0 C203.5,0 203.5,0 203.5,0 C203.5,110.37999725341797 113.87999725341797,200 3.5,200 C3.5,200 -3.5,200 -3.5,200 C-113.87999725341797,200 -203.5,110.37999725341797 -203.5,0 C-203.5,0 -203.5,0 -203.5,0 C-203.5,-110.37999725341797 -113.87999725341797,-200 -3.5,-200 C-3.5,-200 3.5,-200 3.5,-200 C113.87999725341797,-200 203.5,-110.37999725341797 203.5,0z">
                </path>
            </g>
        </g>
        <g transform="matrix(1,0,0,1,595,1320)" opacity="1" style="display: block;">
            <g opacity="1" transform="matrix(1,0,0,1,0,0)">
                <path fill="rgb(244,198,61)" fill-opacity="1"
                    d=" M550,0 C550,0 550,0 550,0 C550,110.37999725341797 460.3800048828125,200 350,200 C350,200 -350,200 -350,200 C-460.3800048828125,200 -550,110.37999725341797 -550,0 C-550,0 -550,0 -550,0 C-550,-110.37999725341797 -460.3800048828125,-200 -350,-200 C-350,-200 350,-200 350,-200 C460.3800048828125,-200 550,-110.37999725341797 550,0z">
                </path>
            </g>
        </g>
        <g transform="matrix(1,0,0,1,1542.5,706)" opacity="1" style="display: block;">
            <g opacity="1" transform="matrix(1,0,0,1,7,0)">
                <path fill="rgb(227,46,24)" fill-opacity="1"
                    d=" M63.5,0 C63.5,0 63.5,0 63.5,0 C63.5,35.045650482177734 35.045650482177734,63.5 0,63.5 C0,63.5 0,63.5 0,63.5 C-35.045650482177734,63.5 -63.5,35.045650482177734 -63.5,0 C-63.5,0 -63.5,0 -63.5,0 C-63.5,-35.045650482177734 -35.045650482177734,-63.5 0,-63.5 C0,-63.5 0,-63.5 0,-63.5 C35.045650482177734,-63.5 63.5,-35.045650482177734 63.5,0z">
                </path>
            </g>
        </g>
        <g transform="matrix(1,0,0,1,1542.5,955)" opacity="1" style="display: block;">
            <g opacity="1" transform="matrix(1,0,0,1,3,0)">
                <path fill="rgb(227,46,24)" fill-opacity="1"
                    d=" M63.5,0 C63.5,0 63.5,0 63.5,0 C63.5,35.045650482177734 35.045650482177734,63.5 0,63.5 C0,63.5 0,63.5 0,63.5 C-35.045650482177734,63.5 -63.5,35.045650482177734 -63.5,0 C-63.5,0 -63.5,0 -63.5,0 C-63.5,-35.045650482177734 -35.045650482177734,-63.5 0,-63.5 C0,-63.5 0,-63.5 0,-63.5 C35.045650482177734,-63.5 63.5,-35.045650482177734 63.5,0z">
                </path>
            </g>
        </g>
        <g transform="matrix(1,0,0,1,1125.2779541015625,830.0969848632812)" opacity="1" style="display: block;">
            <g opacity="1" transform="matrix(1,0,0,1,0,0)">
                <path fill="rgb(0,0,0)" fill-opacity="1"
                    d=" M-295.27801513671875,-180.92999267578125 C-295.27801513671875,-180.92999267578125 -182.9429931640625,180.92999267578125 -182.9429931640625,180.92999267578125 C-182.9429931640625,180.92999267578125 -182.9429931640625,180.92999267578125 -182.9429931640625,180.92999267578125 C-182.9429931640625,180.92999267578125 -71.58000183105469,180.92999267578125 -71.58000183105469,180.92999267578125 C-71.58000183105469,180.92999267578125 0.0689999982714653,-80.39800262451172 0.0689999982714653,-80.39800262451172 C0.0689999982714653,-80.39800262451172 70.33100128173828,180.92999267578125 70.33100128173828,180.92999267578125 C70.33100128173828,180.92999267578125 181.69400024414062,180.92999267578125 181.69400024414062,180.92999267578125 C181.69400024414062,180.92999267578125 295.27801513671875,-180.92999267578125 295.27801513671875,-180.92999267578125 C295.27801513671875,-180.92999267578125 190.718994140625,-180.92999267578125 190.718994140625,-180.92999267578125 C190.718994140625,-180.92999267578125 124.48500061035156,79.28700256347656 124.48500061035156,79.28700256347656 C124.48500061035156,79.28700256347656 52.417999267578125,-180.92999267578125 52.417999267578125,-180.92999267578125 C52.417999267578125,-180.92999267578125 -52.417999267578125,-180.92999267578125 -52.417999267578125,-180.92999267578125 C-52.417999267578125,-180.92999267578125 -124.48500061035156,79.28700256347656 -124.48500061035156,79.28700256347656 C-124.48500061035156,79.28700256347656 -190.718994140625,-180.92999267578125 -190.718994140625,-180.92999267578125 C-190.718994140625,-180.92999267578125 -295.27801513671875,-180.92999267578125 -295.27801513671875,-180.92999267578125z">
                </path>
            </g>
        </g>
        <g transform="matrix(1,0,0,1,375.5,833)" opacity="1" style="display: block;">
            <path fill="rgb(227,46,24)" fill-opacity="1"
                d=" M328,-190.5 C328,-190.5 328,190.5 328,190.5 C328,190.5 -328,190.5 -328,190.5 C-328,190.5 -328,-190.5 -328,-190.5 C-328,-190.5 328,-190.5 328,-190.5z">
            </path>
            <g opacity="1" transform="matrix(1,0,0,1,0,0)"></g>
        </g>
        <g transform="matrix(-1,0,0,1,1075.5,331)" opacity="1" style="display: block;">
            <path fill="rgb(245,149,165)" fill-opacity="1"
                d=" M530.5,-120 C530.5,-120 530.5,120 530.5,120 C530.5,164.15199279785156 494.6520080566406,200 450.5,200 C450.5,200 -450.5,200 -450.5,200 C-494.6520080566406,200 -530.5,164.15199279785156 -530.5,120 C-530.5,120 -530.5,-120 -530.5,-120 C-530.5,-164.15199279785156 -494.6520080566406,-200 -450.5,-200 C-450.5,-200 450.5,-200 450.5,-200 C494.6520080566406,-200 530.5,-164.15199279785156 530.5,-120z">
            </path>
            <g opacity="1" transform="matrix(1,0,0,1,0,0)"></g>
        </g>
        <g transform="matrix(1,0,0,1,248.5,331)" opacity="1" style="display: block;">
            <path fill="rgb(20,63,205)" fill-opacity="1"
                d=" M203.5,0 C203.5,0 203.5,0 203.5,0 C203.5,110.37999725341797 113.87999725341797,200 3.5,200 C3.5,200 -3.5,200 -3.5,200 C-113.87999725341797,200 -203.5,110.37999725341797 -203.5,0 C-203.5,0 -203.5,0 -203.5,0 C-203.5,-110.37999725341797 -113.87999725341797,-200 -3.5,-200 C-3.5,-200 3.5,-200 3.5,-200 C113.87999725341797,-200 203.5,-110.37999725341797 203.5,0z">
            </path>
            <g opacity="1" transform="matrix(1,0,0,1,0,0)"></g>
        </g>
    </g>
</svg>