<svg width="192" height="31" viewBox="0 0 192 31" fill="none" xmlns="http://www.w3.org/2000/svg">
<path d="M190.983 10.6897H187.864L187.474 7.31144C187.44 7.01626 187.185 6.79323 186.882 6.79323L183.408 6.79232C183.168 6.79232 182.973 6.98323 182.973 7.21893V10.6897L183.003 14.3191V20.5828C183.003 21.3779 183.094 22.099 183.277 22.7451C183.459 23.3913 183.758 23.948 184.173 24.415C184.588 24.8831 185.14 25.2409 185.828 25.4889C186.517 25.7372 187.367 25.8618 188.381 25.8618C188.907 25.8618 189.434 25.817 189.961 25.728C190.337 25.6643 190.666 25.5929 190.95 25.5139C191.138 25.4612 191.265 25.2891 191.262 25.0968L191.216 22.4044C191.211 22.1367 190.96 21.9454 190.691 21.9962C190.637 22.0063 190.581 22.0157 190.522 22.0241C190.249 22.0641 189.991 22.0837 189.748 22.0837C189.039 22.0837 188.548 21.9098 188.274 21.5611C188.001 21.2126 187.864 20.6902 187.864 19.9933V14.3191H190.983C191.224 14.3191 191.419 14.1281 191.419 13.8927V11.1161C191.419 10.8806 191.224 10.6897 190.983 10.6897" fill="#6AC32F"/>
<path d="M55.6926 12.0493C55.2569 11.4842 54.685 11.023 53.9761 10.666C53.287 10.3194 52.455 10.1425 51.4802 10.1325L51.4832 10.1306C51.4678 10.1306 51.453 10.1315 51.4375 10.1316C51.4227 10.1315 51.4086 10.1306 51.3936 10.1306C51.3398 10.1306 51.2871 10.1344 51.2338 10.1359C50.1088 10.1626 49.147 10.3674 48.3524 10.7553C47.6264 11.1098 47.0401 11.4935 46.5903 11.9053L46.297 10.961C46.2205 10.7152 45.9888 10.5472 45.7264 10.5472L42.4112 10.547C42.1705 10.547 41.9756 10.738 41.9756 10.9735V24.9359C41.9756 25.1713 42.1705 25.3623 42.4112 25.3623H46.5529C46.7934 25.3623 46.9886 25.1713 46.9886 24.9356V17.3298C46.9886 16.9133 47.044 16.5116 47.1556 16.1251C47.2667 15.7383 47.4339 15.396 47.6571 15.0987C47.8793 14.8012 48.1581 14.5682 48.4923 14.3995C48.8266 14.2313 49.2165 14.1468 49.6621 14.1468C50.1074 14.1468 50.4768 14.2313 50.7708 14.3995C51.0642 14.5682 51.292 14.7966 51.4546 15.0838C51.6165 15.3717 51.7327 15.704 51.8036 16.0803C51.8748 16.4575 51.9101 16.8539 51.9101 17.2705V24.9359C51.9101 25.1713 52.1051 25.3623 52.3457 25.3623H56.4874C56.7281 25.3623 56.9231 25.1713 56.9231 24.9359V16.1994C56.9231 15.466 56.8268 14.732 56.6344 13.9979C56.4417 13.2645 56.1278 12.6145 55.6926 12.0493" fill="#6AC32F"/>
<path d="M93.0779 21.4056C92.6319 21.1876 92.2575 20.8999 91.9539 20.5428C91.65 20.1859 91.4222 19.7744 91.27 19.3083C91.1187 18.8426 91.0427 18.3712 91.0427 17.8952C91.0427 17.4191 91.1187 16.9535 91.27 16.4969C91.4222 16.0411 91.65 15.6394 91.9539 15.2921C92.2575 14.9453 92.6319 14.6628 93.0779 14.4443C93.5228 14.2264 94.0398 14.1171 94.6274 14.1171C95.1945 14.1171 95.7004 14.2264 96.1464 14.4443C96.5916 14.6628 96.9711 14.9499 97.2857 15.307C97.5994 15.664 97.8424 16.0707 98.0149 16.5267C98.1868 16.9831 98.2732 17.4491 98.2732 17.925C98.2732 18.401 98.1868 18.8671 98.0149 19.3232C97.8424 19.7797 97.5994 20.1859 97.2857 20.5428C96.9711 20.8999 96.5916 21.1876 96.1464 21.4056C95.7004 21.6241 95.1945 21.7329 94.6274 21.7329C94.0398 21.7329 93.5228 21.6241 93.0779 21.4056V21.4056ZM102.607 4.75384H98.4959C98.2554 4.75384 98.0604 4.94475 98.0604 5.18022V12.1239H97.9997C97.5742 11.6283 96.9766 11.172 96.2072 10.7554C95.4373 10.339 94.4955 10.1307 93.3819 10.1307C92.2884 10.1307 91.3009 10.339 90.4195 10.7554C89.5387 11.172 88.7889 11.7371 88.1714 12.4511C87.5533 13.165 87.0779 13.9934 86.7437 14.9351C86.4094 15.8773 86.2422 16.8642 86.2422 17.8952C86.2422 18.9267 86.4043 19.9182 86.7284 20.8702C87.0523 21.8221 87.523 22.6601 88.1412 23.384C88.7588 24.108 89.513 24.6883 90.4044 25.1243C91.2956 25.5603 92.308 25.7788 93.4425 25.7788C93.5794 25.7788 93.715 25.7745 93.8499 25.767C95.0331 25.7419 96.0439 25.5286 96.8778 25.1214C97.5959 24.7706 98.1819 24.3922 98.6405 23.9875L98.9622 24.9586C99.0419 25.1993 99.2708 25.3624 99.5293 25.3624H102.607C102.848 25.3624 103.043 25.1714 103.043 24.936V5.18022C103.043 4.94475 102.848 4.75384 102.607 4.75384" fill="#6AC32F"/>
<path d="M129.885 10.5471H125.664C125.468 10.5471 125.296 10.6751 125.244 10.86L122.689 19.9181H122.628L119.925 10.8539C119.871 10.6721 119.7 10.5471 119.507 10.5471H115.15C114.955 10.5471 114.784 10.6738 114.731 10.8575L112.117 19.9181H112.026L109.5 10.8612C109.449 10.6758 109.277 10.5471 109.08 10.5471H104.647C104.348 10.5471 104.137 10.8358 104.235 11.1127L109.16 25.0749C109.22 25.2469 109.386 25.3623 109.571 25.3623H113.953C114.144 25.3623 114.312 25.2404 114.369 25.0619L117.19 16.1399H117.251L120.132 25.0644C120.189 25.2417 120.358 25.3623 120.547 25.3623H124.931C125.117 25.3623 125.282 25.2474 125.343 25.0757L130.296 11.1134C130.394 10.8363 130.184 10.5471 129.885 10.5471" fill="#6AC32F"/>
<path d="M154.968 4.75372H150.765C150.525 4.75372 150.33 4.94463 150.33 5.1801V24.9359C150.33 25.1713 150.525 25.3623 150.765 25.3623H154.968C155.209 25.3623 155.404 25.1713 155.404 24.9359V5.1801C155.404 4.94463 155.209 4.75372 154.968 4.75372" fill="#6AC32F"/>
<path d="M163.291 4.75372H159.088C158.848 4.75372 158.652 4.94463 158.652 5.1801V24.9359C158.652 25.1713 158.848 25.3623 159.088 25.3623H163.291C163.531 25.3623 163.726 25.1713 163.726 24.9359V5.1801C163.726 4.94463 163.531 4.75372 163.291 4.75372" fill="#6AC32F"/>
<path d="M136.044 20.5428C135.74 20.1859 135.512 19.7744 135.36 19.3082C135.209 18.8426 135.132 18.3712 135.132 17.8952C135.132 17.419 135.209 16.9534 135.36 16.4968C135.512 16.041 135.74 15.6393 136.044 15.2921C136.347 14.9453 136.722 14.6627 137.168 14.4442C137.613 14.2263 138.129 14.117 138.717 14.117C139.284 14.117 139.79 14.2263 140.236 14.4442C140.681 14.6627 141.061 14.9498 141.376 15.3069C141.689 15.664 141.932 16.0707 142.105 16.5266C142.277 16.9831 142.363 17.449 142.363 17.925C142.363 18.401 142.277 18.867 142.105 19.3232C141.932 19.7796 141.689 20.1859 141.376 20.5428C141.061 20.8998 140.681 21.1876 140.236 21.4056C139.79 21.6241 139.284 21.7329 138.717 21.7329C138.129 21.7329 137.613 21.6241 137.168 21.4056C136.722 21.1876 136.347 20.8998 136.044 20.5428V20.5428ZM146.697 10.0406L143.225 10.0399C142.961 10.0399 142.728 10.21 142.653 10.4582L142.248 11.8009C141.815 11.4285 141.268 11.0797 140.604 10.7553C139.751 10.3389 138.707 10.1306 137.473 10.1306H137.472C136.378 10.1306 135.391 10.3389 134.509 10.7553C133.628 11.1719 132.879 11.737 132.261 12.451C131.643 13.1649 131.168 13.9933 130.834 14.935C130.499 15.8773 130.332 16.8641 130.332 17.8952C130.332 18.9267 130.494 19.9182 130.818 20.8701C131.142 21.822 131.613 22.6601 132.231 23.384C132.849 24.108 133.603 24.6883 134.494 25.1243C135.385 25.5603 136.398 25.7788 137.532 25.7788C137.794 25.7788 138.051 25.7648 138.305 25.7376C139.232 25.6621 140.042 25.4578 140.731 25.1214C141.548 24.7228 142.194 24.2886 142.675 23.8201L143.052 24.9583C143.132 25.199 143.361 25.3618 143.619 25.3618L146.697 25.3624C146.938 25.3624 147.133 25.1714 147.133 24.936V10.467C147.133 10.2315 146.938 10.0406 146.697 10.0406" fill="#6AC32F"/>
<path d="M85.7094 10.1723L85.6729 10.1653L85.7295 10.1306C85.6036 10.1306 85.4812 10.1342 85.3594 10.1386C85.259 10.1334 85.1573 10.1306 85.0543 10.1306C84.3983 10.1306 83.7989 10.252 83.2535 10.4895C83.0241 10.566 82.8054 10.6543 82.5984 10.7553C81.795 11.1478 81.1628 11.576 80.6978 12.0387L80.3924 10.9889C80.3194 10.7381 80.0854 10.5651 79.8191 10.5651L76.5275 10.5646C76.287 10.5646 76.0918 10.7556 76.0918 10.991V24.9359C76.0918 25.1713 76.287 25.3623 76.5275 25.3623H80.6389C80.8793 25.3623 81.0743 25.1713 81.0743 24.9359V17.7669C81.0743 17.4703 81.1355 17.1243 81.2568 16.7289C81.3783 16.3333 81.5758 15.9675 81.8493 15.631C82.1225 15.2948 82.4873 15.008 82.9428 14.7705C83.3985 14.5335 83.9603 14.4145 84.6288 14.4145C84.8312 14.4145 85.0393 14.4246 85.2518 14.4442L85.4521 14.4686C85.6914 14.4916 85.9046 14.3202 85.9279 14.0858L86.0949 10.6427C86.121 10.4087 85.9485 10.198 85.7094 10.1723" fill="#6AC32F"/>
<path d="M63.3535 16.2576C63.3736 15.881 63.4755 15.5189 63.6575 15.1717C63.84 14.8252 64.083 14.5225 64.387 14.2643C64.691 14.007 65.0449 13.8033 65.45 13.6547C65.8554 13.5059 66.3008 13.4315 66.7868 13.4315C67.7791 13.4315 68.5234 13.7096 69.0195 14.2643C69.5159 14.8199 69.7643 15.4842 69.7643 16.2576H63.3535ZM72.225 12.2117C71.5563 11.5179 70.7561 10.9875 69.825 10.6202C68.893 10.2534 67.8701 10.0699 66.7565 10.0699C65.6022 10.0699 64.5284 10.2586 63.536 10.6351C62.5434 11.012 61.683 11.5424 60.9535 12.2266C60.2245 12.9108 59.6472 13.7438 59.2222 14.7255C58.7965 15.7073 58.584 16.8035 58.584 18.0128C58.584 19.2624 58.8016 20.3734 59.2372 21.3447C59.6729 22.3168 60.2705 23.1348 61.0297 23.7991C61.789 24.4639 62.6746 24.9694 63.688 25.3164C64.7007 25.6632 65.7741 25.8369 66.9085 25.8369C68.4476 25.8369 69.7994 25.5641 70.9638 25.0187C71.6762 24.6851 72.3033 24.2646 72.845 23.7565C73.0513 23.5634 73.0538 23.2404 72.8524 23.0425L70.7002 20.9246C70.5034 20.7309 70.1787 20.7225 69.9842 20.9187C69.6982 21.2073 69.3619 21.4535 68.9743 21.6571C68.427 21.9448 67.759 22.0884 66.9695 22.0884C66.5234 22.0884 66.0929 22.0191 65.678 21.8803C65.2629 21.7418 64.8882 21.5484 64.554 21.3002C64.2197 21.0523 63.946 20.76 63.7337 20.4225C63.5212 20.0856 63.3942 19.7086 63.3535 19.2921H74.3215C74.3412 19.1136 74.3513 18.9254 74.3513 18.7268C74.3513 18.5288 74.3513 18.3304 74.3513 18.1319C74.3513 16.8629 74.164 15.7325 73.7895 14.7406C73.4142 13.7489 72.8935 12.9062 72.225 12.2117" fill="#6AC32F"/>
<path d="M170.383 16.2576C170.403 15.881 170.505 15.5189 170.687 15.1717C170.869 14.8252 171.112 14.5225 171.416 14.2643C171.72 14.007 172.074 13.8033 172.479 13.6547C172.885 13.5059 173.33 13.4315 173.816 13.4315C174.808 13.4315 175.553 13.7096 176.049 14.2643C176.545 14.8199 176.794 15.4842 176.794 16.2576H170.383ZM179.254 12.2117C178.586 11.5179 177.785 10.9875 176.854 10.6202C175.922 10.2534 174.899 10.0699 173.786 10.0699C172.632 10.0699 171.558 10.2586 170.565 10.6351C169.573 11.012 168.712 11.5424 167.983 12.2266C167.254 12.9108 166.677 13.7438 166.252 14.7255C165.826 15.7073 165.613 16.8035 165.613 18.0128C165.613 19.2624 165.831 20.3734 166.267 21.3447C166.702 22.3168 167.3 23.1348 168.059 23.7991C168.818 24.4639 169.704 24.9694 170.717 25.3164C171.73 25.6632 172.803 25.8369 173.938 25.8369C175.477 25.8369 176.829 25.5641 177.993 25.0187C178.705 24.6851 179.333 24.2646 179.874 23.7565C180.081 23.5634 180.083 23.2404 179.882 23.0425L177.73 20.9246C177.533 20.7309 177.208 20.7225 177.014 20.9187C176.728 21.2073 176.391 21.4535 176.004 21.6571C175.456 21.9448 174.788 22.0884 173.999 22.0884C173.553 22.0884 173.122 22.0191 172.707 21.8803C172.292 21.7418 171.918 21.5484 171.583 21.3002C171.249 21.0523 170.975 20.76 170.763 20.4225C170.55 20.0856 170.424 19.7086 170.383 19.2921H181.351C181.37 19.1136 181.381 18.9254 181.381 18.7268C181.381 18.5288 181.381 18.3304 181.381 18.1319C181.381 16.8629 181.193 15.7325 180.819 14.7406C180.444 13.7489 179.923 12.9062 179.254 12.2117" fill="#6AC32F"/>
<path d="M10.6592 0.17021C10.5533 0.131531 10.4405 0.110042 10.3252 0.110042H1.05518C0.679005 0.110042 0.374023 0.408619 0.374023 0.777091V10.2422L10.6592 0.17021Z" fill="#0F9B4A"/>
<path d="M0.574219 30.3099C0.697477 30.4307 0.867834 30.5054 1.05588 30.5054H10.0404C10.4166 30.5054 10.7216 30.2065 10.7216 29.8384V20.3737L0.574219 30.3099Z" fill="#0F9B4A"/>
<path d="M21.0684 10.2416V30.4204C21.0886 30.4295 21.1091 30.4376 21.1299 30.4453L31.4151 20.3736L21.0684 10.2416Z" fill="#1B523D"/>
<path d="M10.7209 20.3733V0.195436C10.7005 0.186162 10.6803 0.176887 10.6593 0.169197L0.374023 10.2411V29.838C0.374023 30.0223 0.450269 30.189 0.573525 30.3096L10.7209 20.3733Z" fill="#6AC32F"/>
<path d="M31.4151 20.374V0.776855C31.4151 0.408381 31.1102 0.109802 30.7339 0.109802H21.7495C21.3736 0.109802 21.069 0.407931 21.0684 0.775952V10.242L31.4151 20.374" fill="#6AC32F"/>
<path d="M31.4141 20.3736L21.1289 30.4452C21.2348 30.4841 21.3476 30.5054 21.463 30.5054H30.7329C31.1092 30.5054 31.4141 30.2065 31.4141 29.8384V20.3736Z" fill="#6AC32F"/>
<path d="M11.0004 0.383291C10.9189 0.303669 10.8236 0.241467 10.7207 0.195775V20.3737L20.7877 30.2316C20.8693 30.3114 20.9646 30.3746 21.0675 30.4204V10.2416L11.0004 0.383291Z" fill="#0F9B4A"/>
</svg>
