<svg width="109" height="39" viewBox="0 0 109 39" fill="none" xmlns="http://www.w3.org/2000/svg">
<path fill-rule="evenodd" clip-rule="evenodd" d="M57.1821 13.364C56.2806 12.6336 54.742 12.2689 52.5654 12.2689H47.6562V26.8821H51.327V22.3021H52.9714C54.9671 22.3021 56.4307 21.879 57.362 21.032C58.4111 20.0832 58.939 18.8197 58.939 17.2424C58.939 15.6067 58.3531 14.3136 57.1821 13.364ZM52.8801 18.9955H51.327V15.5755H52.7224C54.4196 15.5755 55.2682 16.1489 55.2682 17.2958C55.2682 18.4278 54.4716 18.9947 52.8801 18.9947V18.9955ZM65.2205 12.2681H61.3927V26.8813H69.6572V23.5738H65.2205V12.2681ZM77.1565 12.2681L71.1437 26.8813H75.2649L76.0529 24.7568H81.2777L81.9983 26.8813H86.1655L80.1954 12.2681H77.1565ZM77.1113 21.7985L78.6883 16.8037L80.2406 21.7985H77.1113Z" fill="#111111"/>
<path fill-rule="evenodd" clip-rule="evenodd" d="M88.0778 26.8818H91.9064V12.2686H88.0778V26.8818ZM106.77 15.0075C106.287 14.3321 105.666 13.7583 104.945 13.3209C103.79 12.6194 102.213 12.2694 100.216 12.2694H95.1721V26.8818H101.072C103.205 26.8818 104.915 26.2106 106.207 24.8666C107.498 23.5234 108.143 21.7407 108.143 19.5201C108.143 17.7539 107.685 16.2497 106.77 15.0075H106.77ZM100.644 23.5735H99.0007V15.5768H100.667C101.838 15.5768 102.738 15.9301 103.369 16.6341C104 17.3382 104.316 18.3371 104.316 19.6302C104.316 22.2591 103.092 23.5735 100.644 23.5735V23.5735ZM16.5758 0L4.16894 3.12999L0.749747 15.148L5.02609 19.3772L0.680664 23.5365L3.89858 35.6071L16.2517 38.9318L20.598 34.7716L24.8743 39L37.2812 35.87L40.6995 23.8512L36.424 19.6236L40.7694 15.4643L37.5515 3.39288L25.1967 0.0681861L20.8521 4.22754L16.5758 0ZM8.96213 5.44175L15.4977 3.79213L18.3558 6.61816L14.1877 10.6075L8.96213 5.44175ZM23.3093 6.65595L26.2133 3.87675L32.7208 5.62823L27.4099 10.711L23.3093 6.65595ZM4.66532 14.1614L6.46575 7.83155L11.6896 12.9973L7.52247 16.9866L4.66532 14.1614ZM29.8654 13.1402L35.1763 8.05582L36.8701 14.4144L33.9669 17.1944L29.8654 13.1402ZM16.644 13.0359L20.812 9.04657L24.9118 13.1016L20.7447 17.0909L16.644 13.0359ZM9.97962 19.415L14.1468 15.4257L18.2491 19.4807L14.0803 23.47L9.97962 19.415ZM23.2018 19.5193L27.369 15.53L31.4696 19.585L27.3016 23.5743L23.2018 19.5193ZM4.57833 24.5856L7.48324 21.8048L11.583 25.8606L6.27385 30.9425L4.57833 24.5856ZM16.5366 25.8984L20.7046 21.9091L24.8052 25.9641L20.6381 29.9534L16.5366 25.8984ZM29.7579 26.0036L33.9259 22.0143L36.7839 24.8395L34.9844 31.1693L29.7579 26.0036ZM8.72929 33.3726L14.0393 28.2882L18.1417 32.3432L15.2368 35.1241L8.72929 33.3726ZM23.0944 32.3818L27.2615 28.3925L32.4863 33.5591L25.9515 35.2079L23.0944 32.3818Z" fill="#111111"/>
</svg>
