<svg width="161" height="36" viewBox="0 0 161 36" fill="none" xmlns="http://www.w3.org/2000/svg">
<path d="M49.0483 14.1234C48.5071 13.3049 47.774 12.6201 46.9079 12.1241C46.0419 11.6282 45.0672 11.3349 44.062 11.2679C43.0569 11.2009 42.0495 11.362 41.1208 11.7383C40.1921 12.1146 39.368 12.6956 38.7149 13.4345L36.4065 11.7621C36.9826 11.5337 38.184 11.0218 38.2654 10.7113C38.3146 10.5221 37.6973 10.3925 36.7576 10.3174L41.0725 6.52359C41.0874 6.51036 41.0974 6.49284 41.1011 6.47366C41.1049 6.45447 41.102 6.43464 41.0931 6.41713L39.9936 4.42201C39.9822 4.4072 39.9657 4.39676 39.947 4.39252C39.9284 4.38828 39.9088 4.39052 39.8917 4.39885C39.8804 4.40432 39.8706 4.41225 39.863 4.42201L35.3689 8.35764C34.0243 8.35764 31.6381 8.53084 30.9515 8.11328C29.8526 7.44861 29.726 6.46843 29.3171 6.11816C28.9083 5.7679 28.4553 5.72488 28.3574 5.42536C28.352 5.42027 28.3489 5.41333 28.3488 5.40606C28.3488 5.40236 28.3495 5.3987 28.351 5.39529C28.3525 5.39188 28.3547 5.38879 28.3574 5.3862C28.5693 5.3349 29.7506 5.01663 30.0204 4.20579C30.2895 3.39495 29.738 2.34416 29.6481 2.17482C29.6434 2.16921 29.6408 2.1622 29.6408 2.15496C29.6408 2.14773 29.6434 2.14071 29.6481 2.1351L30.9022 1.08046C30.9071 1.07534 30.9102 1.06897 30.9113 1.06214C30.9124 1.05531 30.9114 1.04831 30.9084 1.04203C30.9054 1.03574 30.9006 1.03044 30.8945 1.02678C30.8884 1.02312 30.8814 1.02126 30.8742 1.02144L29.036 1.23821C29.0253 1.24233 29.0134 1.24233 29.0028 1.23821C28.9089 1.1119 28.1856 0.265753 26.6738 0.844375C24.9169 1.53718 25.2399 2.98125 25.2399 2.98125C25.4724 4.48876 26.0158 4.78772 26.9029 5.27974C26.9229 5.27974 26.9355 5.31946 26.9029 5.3349C26.3302 5.79548 20.598 10.3296 15.2987 12.1002C15.2788 12.1069 15.2615 12.1195 15.2493 12.1361C15.237 12.1527 15.2305 12.1725 15.2305 12.1929C15.2305 12.2132 15.237 12.2331 15.2493 12.2497C15.2615 12.2663 15.2788 12.2788 15.2987 12.2855C16.8391 12.9232 21.4278 12.5845 22.7924 11.8211C22.798 11.8176 22.8045 11.8158 22.8112 11.816C22.8178 11.8162 22.8243 11.8184 22.8296 11.8222C22.8349 11.8261 22.8389 11.8315 22.8409 11.8376C22.843 11.8437 22.843 11.8503 22.8411 11.8564C22.6945 12.4036 21.8933 15.6072 23.164 16.6029L23.2333 16.6497L21.5297 17.8307C21.4514 17.8839 21.3935 17.9605 21.3653 18.0488C21.337 18.137 21.34 18.2317 21.3736 18.3181C21.4073 18.4046 21.4698 18.4778 21.5513 18.5263C21.6328 18.5749 21.7287 18.596 21.824 18.5864L22.7025 18.4998C23.2708 18.4413 23.802 18.1999 24.2103 17.8147L24.5 17.5395L26.9762 19.3184L26.6498 21.8413C25.228 21.7667 23.8206 22.1483 22.6481 22.9264C21.4756 23.7046 20.6041 24.8354 20.1701 26.1417C19.7361 27.4479 19.7641 28.856 20.2498 30.1453C20.7355 31.4346 21.6513 32.5323 22.854 33.2666C24.0567 34.0009 25.4782 34.3302 26.8959 34.2031C28.3137 34.0759 29.6476 33.4994 30.6889 32.5639C31.7301 31.6284 32.4199 30.3867 32.6501 29.0332C32.8803 27.6797 32.638 26.2908 31.9611 25.0842L32.5904 24.6903C32.8414 24.9033 33.1569 25.0328 33.4903 25.0596C33.8236 25.0864 34.1571 25.0091 34.4412 24.8391C34.7254 24.6691 34.9452 24.4155 35.068 24.1158C35.1908 23.8161 35.2102 23.4862 35.1232 23.1751L37.7425 22.4354C37.7949 22.4229 37.8442 22.4006 37.8875 22.3696C37.9309 22.3387 37.9675 22.2998 37.9951 22.2552C38.0228 22.2106 38.0411 22.1611 38.0488 22.1097C38.0566 22.0583 38.0537 22.0059 38.0403 21.9555V21.8684C38.023 21.7767 37.9724 21.694 37.8976 21.6349C37.8228 21.5758 37.7287 21.5442 37.632 21.5457H35.4055C35.3989 21.5453 35.3924 21.5433 35.3868 21.5399C35.3811 21.5366 35.3763 21.5319 35.3729 21.5264L34.7029 20.0663L36.0589 12.5492L38.2006 14.0837C37.5795 15.0206 37.2314 16.1012 37.1927 17.2122C37.154 18.3232 37.4262 19.4237 37.9807 20.3986C38.5352 21.3735 39.3517 22.1868 40.3447 22.7533C41.3376 23.3199 42.4704 23.6188 43.6245 23.6188C44.7785 23.6188 45.9114 23.3199 46.9043 22.7533C47.8972 22.1868 48.7137 21.3735 49.2683 20.3986C49.8228 19.4237 50.095 18.3232 50.0563 17.2122C50.0176 16.1012 49.6694 15.0206 49.0483 14.0837V14.1234ZM31.2092 9.64451L34.2448 9.59321L34.6537 10.3136C33.955 10.3412 33.2152 10.3925 32.5085 10.4791C31.9937 10.5381 31.377 9.90431 31.1926 9.69194C31.1884 9.68351 31.1878 9.67383 31.1909 9.66497C31.194 9.65611 31.2005 9.64876 31.2092 9.64451V9.64451ZM26.6205 14.017C26.8782 13.6237 28.3448 11.2623 28.5332 10.4394C28.536 10.4344 28.5401 10.4303 28.5452 10.4274C28.5502 10.4245 28.556 10.423 28.5618 10.423C28.5677 10.423 28.5734 10.4245 28.5785 10.4274C28.5835 10.4303 28.5876 10.4344 28.5905 10.4394C29.5748 11.5376 31.6427 12.1714 31.8019 12.2182H31.8219L34.4779 11.4311L35.0746 11.8603L32.2915 14.3204C31.9933 14.0542 31.6135 13.8883 31.2092 13.8476C29.6035 13.6513 27.1233 13.9971 26.6492 14.0644C26.6434 14.0645 26.6377 14.0631 26.6326 14.0604C26.6275 14.0576 26.6233 14.0536 26.6204 14.0488C26.6175 14.044 26.616 14.0385 26.616 14.0329C26.616 14.0273 26.6176 14.0218 26.6205 14.017V14.017ZM33.4975 22.0813C33.3166 22.1007 33.1409 22.1514 32.9787 22.2308L31.0786 20.8137C31.074 20.8082 31.0715 20.8013 31.0715 20.7941C31.0715 20.787 31.074 20.7801 31.0786 20.7746L32.0263 18.8771C32.0297 18.8722 32.0342 18.8682 32.0396 18.8654C32.0449 18.8626 32.0509 18.8612 32.057 18.8612C32.0631 18.8612 32.069 18.8626 32.0744 18.8654C32.0797 18.8682 32.0843 18.8722 32.0876 18.8771L33.6527 21.239L33.4975 22.0813ZM29.4643 20.0266L28.161 19.09L30.6537 16.8864L29.4643 20.0266ZM29.4643 16.7915L27.4417 18.5825L25.3991 17.1263C26.7654 17.1302 28.1306 17.0193 29.4763 16.7954L29.4643 16.7915ZM27.83 19.8848L29.162 20.8452L29.0028 21.2666C28.9753 21.3376 28.9627 21.4131 28.9657 21.4888C28.9687 21.5645 28.9872 21.6389 29.0202 21.7077C29.0532 21.7765 29.1001 21.8383 29.158 21.8895C29.216 21.9408 29.2839 21.9804 29.3578 22.0063L32.1409 22.9826L32.2228 23.0416C32.1063 23.3461 32.0933 23.6783 32.1855 23.9904L31.5608 24.3836C30.5984 23.11 29.1674 22.2385 27.5603 21.9473L27.83 19.8848ZM27.3971 23.211C28.6104 23.4527 29.6911 24.1115 30.4373 25.0643L26.8697 27.2525L27.3971 23.211ZM29.1047 32.1799C28.43 32.6005 27.6618 32.862 26.8625 32.9431C26.0633 33.0241 25.2554 32.9224 24.5046 32.6463C23.7537 32.3702 23.0811 31.9274 22.5412 31.3539C22.0014 30.7804 21.6096 30.0923 21.3976 29.3456C21.1856 28.5988 21.1595 27.8144 21.3212 27.0561C21.483 26.2978 21.8282 25.587 22.3287 24.9813C22.8292 24.3756 23.471 23.8921 24.2019 23.5701C24.9328 23.2482 25.7322 23.0968 26.5352 23.1282L25.8979 28.0319C25.8897 28.1096 25.9044 28.188 25.9402 28.258C25.9761 28.3281 26.0317 28.387 26.1007 28.4281C26.1697 28.4692 26.2492 28.4907 26.3303 28.4903C26.4114 28.4899 26.4908 28.4675 26.5593 28.4257L30.8988 25.7615C31.485 26.8556 31.6251 28.1212 31.2917 29.3098C30.9582 30.4983 30.1752 31.5236 29.0967 32.1843L29.1047 32.1799ZM32.8928 16.091C32.9232 15.7401 32.8802 15.3869 32.7662 15.0523L35.1152 12.9739L34.0982 18.7282L32.8928 16.091ZM46.3758 21.6014C45.4004 22.1972 44.2444 22.4572 43.096 22.3392C41.9476 22.2213 40.8745 21.7322 40.0516 20.9517C39.2286 20.1712 38.7043 19.1453 38.564 18.0411C38.4237 16.9369 38.6757 15.8195 39.2789 14.8709L43.3276 17.7794C43.4004 17.8276 43.4866 17.8534 43.575 17.8534C43.6633 17.8534 43.7495 17.8276 43.8223 17.7794C43.8812 17.743 43.93 17.6933 43.9645 17.6348C43.9991 17.5762 44.0184 17.5104 44.0209 17.4431C44.0233 17.3757 44.0087 17.3088 43.9784 17.2481C43.9482 17.1874 43.903 17.1346 43.847 17.0943L39.7978 14.1819C40.2835 13.6582 40.88 13.2407 41.5472 12.9576C42.2144 12.6744 42.9368 12.5322 43.6659 12.5403C44.3949 12.5485 45.1137 12.7069 45.7738 13.0049C46.434 13.3029 47.0203 13.7336 47.4933 14.268C47.9663 14.8025 48.315 15.4282 48.516 16.1033C48.717 16.7784 48.7657 17.487 48.6587 18.1817C48.5517 18.8764 48.2915 19.5409 47.8956 20.1307C47.4998 20.7204 46.9775 21.2217 46.3637 21.6009L46.3758 21.6014Z" fill="black"/>
<path d="M33.3665 7.34163L34.8617 7.42436C34.8968 7.42621 34.932 7.4212 34.9651 7.40963C34.9981 7.39807 35.0284 7.38019 35.0541 7.35707L38.7517 4.01607C38.7619 4.00756 38.7691 3.99624 38.7723 3.98366C38.7755 3.97107 38.7746 3.95783 38.7697 3.94576C38.7648 3.93368 38.7562 3.92335 38.745 3.91619C38.7337 3.90903 38.7205 3.90538 38.7071 3.90575L37.2565 3.82301C37.2034 3.81977 37.1502 3.82716 37.1003 3.84472C37.0503 3.86229 37.0046 3.88964 36.9662 3.92505L33.3173 7.21972C33.3069 7.22943 33.2997 7.2419 33.2966 7.25555C33.2936 7.26919 33.2948 7.28341 33.3001 7.29639C33.3053 7.30941 33.3144 7.32065 33.3262 7.3287C33.338 7.33675 33.3521 7.34125 33.3665 7.34163V7.34163ZM13.7911 28.2911L11.4255 29.6762L9.18247 27.9133L9.89313 30.6172L7.58879 32.0966L10.3959 32.384L11.2131 35.0603L12.2381 32.5335L15.0452 32.7105L12.876 30.861L13.7911 28.2911ZM16.549 18.5544L14.1834 19.9356L11.9363 18.1722L12.647 20.8761L10.3467 22.356L13.1538 22.6428L13.971 25.3236L14.996 22.7973L17.8037 22.9699L15.6333 21.1243L16.549 18.5544ZM5.52153 23.7769L6.43662 21.2065L4.07101 22.5921L1.82795 20.8292L2.53861 23.5326L0.238281 25.013L3.04139 25.3004L3.86257 27.9806L4.88417 25.4543L7.6953 25.6269L5.52153 23.7769ZM58.0757 25.2138V9.46912H64.8616C67.781 9.46912 69.6793 11.5227 69.6793 14.2536C69.6793 16.9846 67.781 19.0431 64.8616 19.0431H60.671V25.2033L58.0757 25.2138ZM60.671 11.5944V16.9382H64.7442C66.0418 16.9382 67.0846 15.6652 67.0846 14.2536C67.0846 12.8416 66.0206 11.5944 64.7442 11.5944H60.671ZM82.7723 21.9076C83.5894 21.7486 84.4085 21.5996 85.2296 21.4608C85.3939 22.3543 85.9471 23.4272 87.8242 23.4272C88.2445 23.4272 90.3026 23.2733 90.3026 21.8408C90.3026 19.1358 83.1234 21.9285 83.1234 17.0773C83.1234 15.1522 85.1122 13.6993 87.6169 13.6993C90.1217 13.6993 92.2491 14.7258 92.6001 17.2311C91.7652 17.3696 90.9514 17.5235 90.1429 17.6829C89.9785 16.2708 89.0795 15.7578 87.6862 15.7578C86.4579 15.7578 85.623 16.3839 85.623 17.0773C85.623 17.9962 86.5054 18.2373 87.8935 18.3757C90.5529 18.6427 92.7811 19.2025 92.7811 21.8408C92.7811 24.2127 90.6537 25.4653 87.8242 25.4653C84.8144 25.4653 83.097 23.9253 82.7723 21.9076ZM93.435 15.7474V13.8995H95.4507V10.6137H97.9555V13.8791H100.386V15.7474H97.9555V22.1646C97.9555 23.0582 98.2315 23.3296 99.0189 23.3296C99.3642 23.3296 100.13 23.2838 100.13 23.2838V25.2292C100.13 25.2292 99.2314 25.3164 98.3432 25.3164C96.1419 25.3164 95.4238 24.1768 95.4238 22.0102V15.7474H93.435ZM109.102 18.9096C109.102 17.1848 108.708 15.7325 106.831 15.7325C105.044 15.7325 104.56 17.1848 104.56 18.9096V25.2138H102.056V13.9199H104.326L104.56 15.1467C104.906 14.5206 106.299 13.6938 107.666 13.6938C108.32 13.6569 108.972 13.7963 109.548 14.0964C110.125 14.3968 110.604 14.8458 110.931 15.3932C111.559 14.3667 113.059 13.6943 114.452 13.6943C117.643 13.6943 118.621 15.5731 118.621 18.9301V25.2348H116.153V18.9091C116.153 17.2047 115.669 15.711 113.883 15.711C112.005 15.711 111.612 17.1638 111.612 18.9091V25.2133H109.112L109.102 18.9096ZM123.162 17.8009C122.354 17.6675 121.519 17.4876 120.684 17.3541C120.939 14.8488 123.072 13.6838 125.529 13.6838C128.842 13.6838 130.555 15.2239 130.555 18.3349V22.2722C130.555 22.9451 130.693 23.3246 131.182 23.3246C131.386 23.3218 131.588 23.2904 131.783 23.2319V25.2033C131.3 25.3299 130.8 25.3904 130.299 25.3831C129.811 25.4135 129.33 25.264 128.952 24.9645C128.574 24.665 128.328 24.2391 128.262 23.7714C127.813 24.2877 127.254 24.7048 126.623 24.9945C125.991 25.2841 125.303 25.4394 124.604 25.4499C121.892 25.4499 120.269 23.992 120.269 21.8563C120.269 20.0906 121.96 18.4783 125.055 18.4783H128.071V17.8009C128.071 16.9283 127.699 15.7474 125.545 15.7474C124.109 15.7474 123.226 16.4407 123.178 17.8009H123.162ZM128.071 20.8402V20.2804H125.311C123.253 20.2804 122.832 21.3074 122.832 21.8463C122.832 22.6059 123.364 23.3864 124.896 23.3864C126.933 23.3864 128.087 22.046 128.087 20.8193L128.071 20.8402ZM75.774 25.4604C74.5674 25.4604 73.3883 25.1151 72.3851 24.4675C71.3818 23.821 70.6001 22.901 70.1386 21.8254C69.6773 20.7494 69.5568 19.5661 69.7921 18.4244C70.0273 17.2826 70.6079 16.2334 71.4608 15.4087C72.3125 14.585 73.3993 14.0239 74.5829 13.7966C75.7665 13.5694 76.9936 13.6862 78.1081 14.1323C79.2233 14.5783 80.1761 15.3329 80.8459 16.3006C81.5161 17.2694 81.8738 18.4074 81.8738 19.5716C81.8721 21.1331 81.229 22.6301 80.0855 23.7339C78.9419 24.8376 77.3911 25.4587 75.774 25.4604V25.4604ZM75.774 15.9321C75.0268 15.9321 74.2965 16.1459 73.6758 16.5466C73.0538 16.9477 72.5693 17.5175 72.2837 18.1839C71.9981 18.8503 71.9241 19.5834 72.0712 20.2903C72.2172 20.9969 72.5773 21.6461 73.106 22.1558C73.6343 22.6647 74.3075 23.0111 75.0404 23.1512C75.7733 23.2912 76.5328 23.2185 77.2228 22.9423C77.9133 22.6652 78.5029 22.197 78.917 21.597C79.3312 20.9969 79.5513 20.2921 79.5495 19.5716C79.5483 18.6057 79.1497 17.6796 78.442 16.9973C77.7342 16.3149 76.7744 15.9316 75.774 15.9316V15.9321ZM147.354 21.2815C148.119 21.4817 148.88 21.7024 149.646 21.9285C149.114 23.5612 147.519 25.44 144.328 25.44C141.137 25.44 138.813 23.0471 138.813 19.5567C138.813 16.0656 140.94 13.6734 144.211 13.6734C147.482 13.6734 149.497 15.7782 149.497 19.197C149.504 19.5572 149.488 19.9174 149.449 20.2754H141.398C141.446 21.9285 142.626 23.4018 144.317 23.4018C144.995 23.4202 145.659 23.2224 146.208 22.8392C146.757 22.4554 147.16 21.908 147.354 21.2815V21.2815ZM146.822 18.4629C146.753 16.7844 145.918 15.7115 144.2 15.7115C142.483 15.7115 141.584 17.0519 141.515 18.4634L146.822 18.4629ZM150.572 21.9076C151.406 21.7537 152.22 21.5948 153.028 21.4608C153.193 22.3543 153.746 23.4272 155.623 23.4272C156.038 23.4272 158.101 23.2733 158.101 21.8408C158.101 19.1358 150.922 21.9335 150.922 17.0773C150.922 15.1572 152.911 13.6993 155.416 13.6993C157.921 13.6993 160.048 14.7258 160.394 17.2361C159.564 17.3696 158.75 17.5235 157.942 17.6829C157.777 16.2708 156.879 15.7578 155.485 15.7578C154.257 15.7578 153.422 16.3839 153.422 17.0773C153.422 17.9962 154.305 18.2422 155.693 18.3757C158.352 18.6427 160.58 19.2025 160.58 21.8408C160.58 24.2127 158.452 25.4653 155.623 25.4653C152.614 25.4653 150.896 23.9253 150.572 21.9076V21.9076ZM131.411 15.7474V13.8995H133.426V10.6137H135.931V13.8791H138.361V15.7474H135.931V22.1646C135.931 23.0582 136.207 23.3296 137.021 23.3296C137.367 23.3296 138.132 23.2838 138.132 23.2838V25.2292C138.132 25.2292 137.239 25.3164 136.346 25.3164C134.149 25.3164 133.426 24.1768 133.426 22.0102V15.7474H131.411Z" fill="black"/>
</svg>
