<svg width="40" height="40" viewBox="0 0 40 40" fill="none" xmlns="http://www.w3.org/2000/svg">
<path d="M15 18.75H7.6375C7.86981 17.2029 8.42224 15.7213 9.25949 14.3998C10.0967 13.0783 11.2004 11.9459 12.5 11.075L14.7375 9.575L13.3625 7.5L11.125 9C9.2416 10.2551 7.69714 11.9557 6.62867 13.9509C5.5602 15.9461 5.00076 18.1742 5 20.4375V28.75C5 29.413 5.26339 30.0489 5.73223 30.5178C6.20107 30.9866 6.83696 31.25 7.5 31.25H15C15.663 31.25 16.2989 30.9866 16.7678 30.5178C17.2366 30.0489 17.5 29.413 17.5 28.75V21.25C17.5 20.587 17.2366 19.9511 16.7678 19.4822C16.2989 19.0134 15.663 18.75 15 18.75Z" fill="black"/>
<path d="M32.5 18.75H25.1375C25.3698 17.2029 25.9222 15.7213 26.7595 14.3998C27.5967 13.0783 28.7004 11.9459 30 11.075L32.2375 9.575L30.875 7.5L28.625 9C26.7416 10.2551 25.1971 11.9557 24.1287 13.9509C23.0602 15.9461 22.5008 18.1742 22.5 20.4375V28.75C22.5 29.413 22.7634 30.0489 23.2322 30.5178C23.7011 30.9866 24.337 31.25 25 31.25H32.5C33.163 31.25 33.7989 30.9866 34.2678 30.5178C34.7366 30.0489 35 29.413 35 28.75V21.25C35 20.587 34.7366 19.9511 34.2678 19.4822C33.7989 19.0134 33.163 18.75 32.5 18.75Z" fill="black"/>
</svg>
