<svg width="138" height="24" viewBox="0 0 138 24" fill="none" xmlns="http://www.w3.org/2000/svg">
<path d="M27.3624 0.393555L22.4609 18.7384L41.5061 23.4596L46.4076 5.11477L27.3624 0.393555ZM90.5704 2.44786V21.3905H110.236V2.44786H90.5704ZM112.586 2.44786L120.268 11.8045L112.586 21.3905H122.036L125.045 17.6274L128.161 21.3905H137.69L129.771 11.754L137.215 2.44786H127.765L124.993 5.93157L122.089 2.44786H112.586ZM0.231445 2.44829V21.3909H8.94263V14.3734C11.2919 14.3734 12.4005 16.3563 12.77 21.3909H21.7976C21.4017 17.7549 20.1083 14.6279 17.9967 12.314C19.4484 11.3477 20.2405 9.87258 20.2405 8.11834C20.2405 5.29584 18.0496 2.44829 13.0869 2.44829H0.231445ZM48.438 2.44829V21.3909H62.1644C66.7576 21.3909 68.8958 19.0772 68.8958 16.153C68.8958 14.5257 68.2889 13.0765 65.8075 11.8054C67.7873 10.7119 68.3678 9.28776 68.3678 7.73668C68.3678 5.55004 67.1008 2.44829 60.739 2.44829H48.438ZM71.5644 2.44829V21.3909H87.9039V16.6366H80.2752V2.44829H71.5644ZM57.1492 6.26228H57.6772C59.4458 6.26228 59.9739 7.05011 59.9739 8.09286C59.9739 9.44021 59.261 9.94892 57.3603 9.94892H57.1492V6.26228ZM8.94263 6.33827H9.47063C11.1071 6.33827 11.5293 7.40643 11.5293 8.22022C11.5293 9.44063 10.764 9.99986 9.18019 9.99986H8.94263V6.33827ZM33.0532 9.67467L36.7708 10.5959L35.814 14.1773L32.0964 13.2556L33.0532 9.67467ZM98.483 10.0699H102.322V13.7672H98.483V10.0699ZM57.1492 13.1274H57.7561C59.5776 13.1274 60.1846 14.017 60.1846 15.2632C60.1846 16.6871 59.419 17.2211 57.4128 17.2211H57.1492V13.1274Z" fill="#E2231A"/>
</svg>
