<svg width="40" height="40" viewBox="0 0 40 40" fill="none" xmlns="http://www.w3.org/2000/svg">
<path d="M28.5554 10.4443H34.6665" stroke="black" stroke-width="2" stroke-linecap="square"/>
<path d="M5.33325 10.4443H23.6666" stroke="black" stroke-width="2" stroke-linecap="square"/>
<path d="M28.5554 30H34.6665" stroke="black" stroke-width="2" stroke-linecap="square"/>
<path d="M5.33325 30H23.6666" stroke="black" stroke-width="2" stroke-linecap="square"/>
<path d="M16.3333 20.2222H34.6666" stroke="black" stroke-width="2" stroke-linecap="square"/>
<path d="M5.33325 20.2222H11.4444" stroke="black" stroke-width="2" stroke-linecap="square"/>
<path d="M26.1109 12.8889C27.461 12.8889 28.5554 11.7945 28.5554 10.4444C28.5554 9.09441 27.461 8 26.1109 8C24.7609 8 23.6665 9.09441 23.6665 10.4444C23.6665 11.7945 24.7609 12.8889 26.1109 12.8889Z" stroke="black" stroke-width="2" stroke-linecap="square"/>
<path d="M13.8888 22.6667C15.2388 22.6667 16.3332 21.5723 16.3332 20.2223C16.3332 18.8722 15.2388 17.7778 13.8888 17.7778C12.5388 17.7778 11.4443 18.8722 11.4443 20.2223C11.4443 21.5723 12.5388 22.6667 13.8888 22.6667Z" stroke="black" stroke-width="2" stroke-linecap="square"/>
<path d="M26.1109 32.4446C27.461 32.4446 28.5554 31.3501 28.5554 30.0001C28.5554 28.6501 27.461 27.5557 26.1109 27.5557C24.7609 27.5557 23.6665 28.6501 23.6665 30.0001C23.6665 31.3501 24.7609 32.4446 26.1109 32.4446Z" stroke="black" stroke-width="2" stroke-linecap="square"/>
</svg>
