<svg width="40" height="40" viewBox="0 0 40 40" fill="none" xmlns="http://www.w3.org/2000/svg">
<path d="M22.7395 7.40577C22.7395 8.73443 21.6624 9.81153 20.3338 9.81153C19.0051 9.81153 17.928 8.73443 17.928 7.40577C17.928 6.0771 19.0051 5 20.3338 5C21.6624 5 22.7395 6.0771 22.7395 7.40577Z" stroke="black" stroke-width="2"/>
<path d="M25.1019 18.9854V17.5361C25.1019 15.327 23.311 13.5361 21.1019 13.5361H19.5657C17.3566 13.5361 15.5657 15.327 15.5657 17.5361V18.9854" stroke="black" stroke-width="2"/>
<path d="M22.7395 23.7544C22.7395 25.0831 21.6624 26.1602 20.3338 26.1602C19.0051 26.1602 17.928 25.0831 17.928 23.7544C17.928 22.4257 19.0051 21.3486 20.3338 21.3486C21.6624 21.3486 22.7395 22.4257 22.7395 23.7544Z" stroke="black" stroke-width="2"/>
<path d="M25.1019 35.334V33.8848C25.1019 31.6756 23.311 29.8848 21.1019 29.8848H19.5657C17.3566 29.8848 15.5657 31.6756 15.5657 33.8848V35.334" stroke="black" stroke-width="2"/>
<path d="M11.8404 14.2163C11.8404 15.545 10.7633 16.6221 9.43467 16.6221C8.106 16.6221 7.0289 15.545 7.0289 14.2163C7.0289 12.8876 8.106 11.8105 9.43467 11.8105C10.7633 11.8105 11.8404 12.8876 11.8404 14.2163Z" stroke="black" stroke-width="2"/>
<path d="M14.2028 25.7959V24.3467C14.2028 22.1375 12.4119 20.3467 10.2028 20.3467H8.66663C6.45749 20.3467 4.66663 22.1375 4.66663 24.3467V25.7959" stroke="black" stroke-width="2"/>
<path d="M33.6369 14.2163C33.6369 15.545 32.5598 16.6221 31.2312 16.6221C29.9025 16.6221 28.8254 15.545 28.8254 14.2163C28.8254 12.8876 29.9025 11.8105 31.2312 11.8105C32.5598 11.8105 33.6369 12.8876 33.6369 14.2163Z" stroke="black" stroke-width="2"/>
<path d="M35.9993 25.7959V24.3467C35.9993 22.1375 34.2084 20.3467 31.9993 20.3467H30.4631C28.254 20.3467 26.4631 22.1375 26.4631 24.3467V25.7959" stroke="black" stroke-width="2"/>
</svg>
